<svg width="24" height="24" viewBox="0 0 24 24" fill="none" xmlns="http://www.w3.org/2000/svg">
<path d="M21.6098 9.0004C21.8921 9.06723 21.937 9.4159 21.6804 9.53793L19.6722 10.4968C19.6144 10.5258 19.5663 10.5665 19.5374 10.6188L18.6135 12.2314C18.4756 12.4697 18.0874 12.4261 18.0168 12.1646L17.0095 8.35827C16.9518 8.14616 17.1667 7.95439 17.4009 8.0096L21.6098 8.99749V9.0004Z" fill="#FF66CC"/>
<path d="M13.0061 5.98561C13.3561 5.90635 13.8168 5.903 14.1612 6.24743C14.489 6.5752 14.5787 7.02172 14.5825 7.42261C14.5864 7.83123 14.5027 8.29105 14.3802 8.75925C14.1352 9.69583 13.6943 10.8112 13.2808 11.8734C12.8583 12.9589 12.4639 13.9898 12.2694 14.8241C12.172 15.2419 12.135 15.5694 12.1532 15.8069C12.1713 16.0427 12.2359 16.1109 12.2624 16.1316C12.5207 16.3346 13.0177 16.4797 13.7571 16.5198C14.472 16.5584 15.3154 16.4948 16.1697 16.3748C17.4972 16.1882 18.7955 15.8739 19.5878 15.6416C19.8938 15.552 20.2256 15.7086 20.3346 16.0083C20.4435 16.3079 20.2889 16.6377 19.9833 16.7288C19.131 16.9827 17.7426 17.3197 16.3303 17.5181C15.4382 17.6435 14.5134 17.7169 13.6949 17.6726C12.9008 17.6296 12.0988 17.4717 11.5488 17.0396C11.1712 16.7428 11.0337 16.3058 11.0022 15.8953C10.9708 15.4865 11.0367 15.0264 11.1449 14.562C11.3618 13.6319 11.7901 12.5194 12.2047 11.4544C12.6283 10.3661 13.0389 9.32369 13.263 8.46698C13.3751 8.03854 13.4303 7.69278 13.4279 7.43343C13.4269 7.32844 13.4167 7.25178 13.4035 7.19627C13.3884 7.13226 13.3254 7.09731 13.2612 7.11184C13.0807 7.15274 12.8157 7.26741 12.4669 7.47786C11.7773 7.89399 10.903 8.59518 9.9585 9.45294C8.24738 11.0069 6.38146 13.0049 5.10048 14.5394C4.89615 14.7842 4.53303 14.823 4.28492 14.6227C4.03682 14.4224 3.9976 14.059 4.20182 13.8142C5.51529 12.2392 7.42365 10.1953 9.18226 8.59823C10.1439 7.72498 11.0838 6.96382 11.8704 6.48919C12.2597 6.25434 12.6483 6.06665 13.0061 5.98561Z" fill="white"/>
<path d="M15.7525 4C16.0162 4 16.23 4.21393 16.23 4.47783V9.25615C16.23 9.52005 16.0162 9.73398 15.7525 9.73398H10.9775C10.7138 9.73398 10.5 9.52005 10.5 9.25615V4.47783C10.5 4.21393 10.7138 4 10.9775 4H15.7525ZM11.455 8.77832H15.275V4.95566H11.455V8.77832Z" fill="#FF66CC"/>
<ellipse cx="13.4511" cy="6.79027" rx="0.413545" ry="0.413832" fill="#FF66CC"/>
<path d="M6.11039 12.5C6.3017 12.5 6.45679 12.6551 6.45679 12.8464V16.3103C6.45679 16.5017 6.3017 16.6567 6.11039 16.6567H2.64644C2.45514 16.6567 2.30005 16.5017 2.30005 16.3103V12.8464C2.30005 12.6551 2.45514 12.5 2.64644 12.5H6.11039ZM2.99284 15.9639H5.764V13.1928H2.99284V15.9639Z" fill="#FF66CC"/>
<circle cx="4.44087" cy="14.5227" r="0.3" fill="#FF66CC"/>
<path d="M21.8103 14C22.0017 14 22.1567 14.1551 22.1567 14.3464V17.8103C22.1567 18.0017 22.0017 18.1567 21.8103 18.1567H18.3464C18.1551 18.1567 18 18.0017 18 17.8103V14.3464C18 14.1551 18.1551 14 18.3464 14H21.8103ZM18.6928 17.4639H21.464V14.6928H18.6928V17.4639Z" fill="#FF66CC"/>
<circle cx="20.1408" cy="16.0227" r="0.3" fill="#FF66CC"/>
</svg>
