<svg width="24" height="24" viewBox="0 0 24 24" fill="none" xmlns="http://www.w3.org/2000/svg">
<path d="M11.7 8.40001C12.012 8.40001 12.312 8.44201 12.6 8.51401V6.60001C12.6 4.94401 11.25 3.60001 9.6 3.60001H6C4.344 3.60001 3 4.94401 3 6.60001V17.4C3 19.05 4.344 20.4 6 20.4H9.6C11.25 20.4 12.6 19.05 12.6 17.4V15.486C12.312 15.558 12.012 15.6 11.7 15.6C11.388 15.6 11.088 15.558 10.8 15.48V17.4C10.8 18.06 10.26 18.6 9.6 18.6H6C5.334 18.6 4.8 18.06 4.8 17.4V6.60001C4.8 5.93401 5.334 5.40001 6 5.40001H9.6C10.26 5.40001 10.8 5.93401 10.8 6.60001V8.52001C11.088 8.44201 11.388 8.40001 11.7 8.40001Z" fill="white"/>
<path d="M21.024 10.848L17.976 8.30999C17.592 7.99199 17.028 8.04599 16.71 8.42399C16.392 8.80799 16.446 9.37199 16.824 9.68999L18.516 11.1H15.186C14.79 9.54599 13.374 8.39999 11.706 8.39999C9.71996 8.39999 8.10596 10.014 8.10596 12C8.10596 13.986 9.71996 15.6 11.706 15.6C13.374 15.6 14.79 14.448 15.186 12.9H18.516L16.824 14.31C16.44 14.628 16.392 15.198 16.71 15.576C16.89 15.792 17.142 15.9 17.4 15.9C17.604 15.9 17.808 15.834 17.976 15.69L21.024 13.152C21.366 12.864 21.564 12.444 21.564 12C21.564 11.556 21.366 11.136 21.024 10.848ZM11.7 13.8C10.704 13.8 9.89996 12.99 9.89996 12C9.89996 11.01 10.704 10.2 11.7 10.2C12.696 10.2 13.5 11.004 13.5 12C13.5 12.996 12.69 13.8 11.7 13.8Z" fill="#FF66CC"/>
</svg>
