<svg width="24" height="24" viewBox="0 0 24 24" fill="none" xmlns="http://www.w3.org/2000/svg">
<path d="M17.4444 19C17.8722 19 18.2383 18.8478 18.5427 18.5434C18.847 18.2391 18.9995 17.8727 19 17.4444V6.55556C19 6.12778 18.8476 5.7617 18.5427 5.45733C18.2378 5.15296 17.8717 5.00052 17.4444 5H6.55556C6.12778 5 5.76145 5.15244 5.45656 5.45733C5.15167 5.76222 4.99948 6.1283 5 6.55556V17.4444C5 17.8722 5.15219 18.2386 5.45656 18.5434C5.76093 18.8483 6.12726 19.0005 6.55556 19H17.4444ZM12 17.4444H6.55556V6.55556H12V17.4444Z" fill="white"/>
</svg>
