<svg width="24" height="24" viewBox="0 0 24 24" fill="none" xmlns="http://www.w3.org/2000/svg">
<path d="M12.187 11.4874L14.1784 9.39723C14.4517 9.11034 14.2564 8.61853 13.8703 8.61853L9.89196 8.61853C9.50584 8.61853 9.31061 9.11034 9.58393 9.39723L11.5753 11.4874C11.7445 11.665 12.0178 11.665 12.187 11.4874Z" fill="#FF66CC"/>
<path d="M18.8041 4.34631C19.6331 4.34631 20.3052 5.01835 20.3052 5.84736C20.3052 6.67636 19.6331 7.3484 18.8041 7.3484H5.06379C4.23478 7.3484 3.56274 6.67636 3.56274 5.84736C3.56274 5.01835 4.23478 4.34631 5.06379 4.34631H18.8041Z" fill="white"/>
<path d="M15.2247 13.3526L15.2662 13.3537C15.6933 13.3753 16.0329 13.7284 16.0329 14.1609C16.0329 14.5933 15.6933 14.9464 15.2662 14.968L15.2247 14.9691H5.06375C4.61736 14.9691 4.25549 14.6072 4.25549 14.1609C4.25549 13.7145 4.61736 13.3526 5.06375 13.3526H15.2247Z" fill="#FF66CC"/>
<path d="M19.3814 16.1237C19.8278 16.1237 20.1897 16.4856 20.1897 16.932C20.1897 17.3784 19.8278 17.7403 19.3814 17.7403H5.06375C4.61736 17.7403 4.25549 17.3784 4.25549 16.932C4.25549 16.4856 4.61736 16.1237 5.06375 16.1237H19.3814Z" fill="#FF66CC"/>
<path d="M19.3814 18.664C19.8278 18.664 20.1896 19.0258 20.1896 19.4722C20.1896 19.9186 19.8278 20.2805 19.3814 20.2805H8.98953C8.54314 20.2805 8.18127 19.9186 8.18127 19.4722C8.18127 19.0258 8.54314 18.664 8.98953 18.664H19.3814Z" fill="#FF66CC"/>
</svg>
