<svg width="24" height="24" viewBox="0 0 24 24" fill="none" xmlns="http://www.w3.org/2000/svg">
<path d="M21.054 16.5258C21.4304 16.6243 21.4903 17.1382 21.1481 17.318L18.4705 18.731C18.3935 18.7738 18.3293 18.8338 18.2908 18.9109L17.0589 21.2873C16.875 21.6384 16.3575 21.5742 16.2634 21.1888L14.9203 15.5795C14.8433 15.267 15.1298 14.9844 15.4421 15.0657L21.054 16.5216V16.5258Z" fill="#FF66CC"/>
<path d="M8.99995 21.3H7.19995C4.71595 21.3 2.69995 19.284 2.69995 16.8V15C2.69995 14.502 3.10195 14.1 3.59995 14.1C4.09795 14.1 4.49995 14.502 4.49995 15V16.8C4.49995 18.288 5.71195 19.5 7.19995 19.5H8.99995C9.49795 19.5 9.89995 19.902 9.89995 20.4C9.89995 20.898 9.49795 21.3 8.99995 21.3ZM20.4 9.90001C19.902 9.90001 19.5 9.49801 19.5 9.00001V7.20001C19.5 5.71201 18.288 4.50001 16.8 4.50001H15C14.502 4.50001 14.1 4.09801 14.1 3.60001C14.1 3.10201 14.502 2.70001 15 2.70001H16.8C19.284 2.70001 21.2999 4.71601 21.2999 7.20001V9.00001C21.2999 9.49801 20.8979 9.90001 20.4 9.90001ZM3.59995 9.90001C3.10195 9.90001 2.69995 9.49801 2.69995 9.00001V7.20001C2.69995 4.71601 4.71595 2.70001 7.19995 2.70001H8.99995C9.49795 2.70001 9.89995 3.10201 9.89995 3.60001C9.89995 4.09801 9.49795 4.50001 8.99995 4.50001H7.19995C5.71195 4.50001 4.49995 5.71201 4.49995 7.20001V9.00001C4.49995 9.49801 4.09795 9.90001 3.59995 9.90001Z" fill="white"/>
<path d="M11.8301 13.2633C11.6033 13.1757 11.6152 12.8739 11.8483 12.802L12.6169 12.5718C12.6892 12.5501 12.7495 12.4984 12.7785 12.4331L13.0864 11.7399C13.1794 11.5298 13.5044 11.5426 13.5832 11.7595L13.8355 12.4748C13.8594 12.5421 13.9154 12.5984 13.9858 12.6257L14.7339 12.9157C14.9607 13.0033 14.9488 13.3051 14.7158 13.377L13.9471 13.6072C13.8748 13.6289 13.8145 13.6806 13.7855 13.7459L13.4776 14.4391C13.3847 14.6492 13.0596 14.6364 12.9808 14.4195L12.7285 13.7042C12.7046 13.6369 12.6486 13.5806 12.5783 13.5533L11.8301 13.2633Z" fill="white"/>
<path d="M6.94678 9.53284C6.6139 9.39579 6.63269 8.91881 6.97531 8.80836L8.48468 8.31522C8.59191 8.28071 8.67777 8.19888 8.72318 8.0948L9.33352 6.6289C9.47058 6.29603 9.94755 6.31481 10.058 6.65744L10.5511 8.1668C10.5857 8.27404 10.6675 8.35989 10.7716 8.40531L12.2375 9.01564C12.5703 9.1527 12.5516 9.62968 12.2089 9.74013L10.6996 10.2333C10.5923 10.2678 10.5065 10.3496 10.4611 10.4537L9.85072 11.9196C9.71366 12.2525 9.23669 12.2337 9.12624 11.8911L8.6331 10.3817C8.59859 10.2745 8.51676 10.1886 8.41268 10.1432L6.94678 9.53284Z" fill="#FF66CC"/>
</svg>
