<svg width="24" height="24" viewBox="0 0 24 24" fill="none" xmlns="http://www.w3.org/2000/svg">
<path d="M16.8 21.3H15C14.502 21.3 14.1 20.898 14.1 20.4C14.1 19.902 14.502 19.5 15 19.5H16.8C18.288 19.5 19.5 18.288 19.5 16.8V15C19.5 14.502 19.902 14.1 20.4 14.1C20.8979 14.1 21.2999 14.502 21.2999 15V16.8C21.2999 19.284 19.284 21.3 16.8 21.3ZM8.99995 21.3H7.19995C4.71595 21.3 2.69995 19.284 2.69995 16.8V15C2.69995 14.502 3.10195 14.1 3.59995 14.1C4.09795 14.1 4.49995 14.502 4.49995 15V16.8C4.49995 18.288 5.71195 19.5 7.19995 19.5H8.99995C9.49795 19.5 9.89995 19.902 9.89995 20.4C9.89995 20.898 9.49795 21.3 8.99995 21.3ZM20.4 9.90001C19.902 9.90001 19.5 9.49801 19.5 9.00001V7.20001C19.5 5.71201 18.288 4.50001 16.8 4.50001H15C14.502 4.50001 14.1 4.09801 14.1 3.60001C14.1 3.10201 14.502 2.70001 15 2.70001H16.8C19.284 2.70001 21.2999 4.71601 21.2999 7.20001V9.00001C21.2999 9.49801 20.8979 9.90001 20.4 9.90001ZM3.59995 9.90001C3.10195 9.90001 2.69995 9.49801 2.69995 9.00001V7.20001C2.69995 4.71601 4.71595 2.70001 7.19995 2.70001H8.99995C9.49795 2.70001 9.89995 3.10201 9.89995 3.60001C9.89995 4.09801 9.49795 4.50001 8.99995 4.50001H7.19995C5.71195 4.50001 4.49995 5.71201 4.49995 7.20001V9.00001C4.49995 9.49801 4.09795 9.90001 3.59995 9.90001Z" fill="white"/>
<path d="M8.09995 8.40001H15.9C16.398 8.40001 16.8 7.99801 16.8 7.50001C16.8 7.00201 16.398 6.60001 15.9 6.60001H8.09995C7.60195 6.60001 7.19995 7.00201 7.19995 7.50001C7.19995 7.99801 7.60195 8.40001 8.09995 8.40001Z" fill="#FF66CC"/>
<path d="M15.9 11.1H8.09995C7.60195 11.1 7.19995 11.502 7.19995 12C7.19995 12.498 7.60195 12.9 8.09995 12.9H15.9C16.398 12.9 16.8 12.498 16.8 12C16.8 11.502 16.398 11.1 15.9 11.1Z" fill="#FF66CC"/>
<path d="M13.5 15.6H8.09995C7.60195 15.6 7.19995 16.002 7.19995 16.5C7.19995 16.998 7.60195 17.4 8.09995 17.4H13.5C13.998 17.4 14.4 16.998 14.4 16.5C14.4 16.002 13.998 15.6 13.5 15.6Z" fill="#FF66CC"/>
</svg>
