<svg width="24" height="24" viewBox="0 0 24 24" fill="none" xmlns="http://www.w3.org/2000/svg">
<path d="M15.4148 15.7905C15.7225 15.707 16.0396 15.8887 16.1231 16.1964C16.2067 16.5041 16.0251 16.8212 15.7174 16.9048C15.175 17.0521 14.6318 17.173 14.1251 17.2435C13.8093 17.2875 13.5175 17.0672 13.4735 16.7514C13.4296 16.4356 13.65 16.1439 13.9658 16.0999C14.4099 16.0381 14.9031 15.9295 15.4148 15.7905ZM11.5939 14.7585C11.9111 14.7269 12.1941 14.9584 12.2258 15.2757C12.2511 15.5302 12.3116 15.7475 12.4064 15.9321C12.4256 15.9694 12.4778 16.0367 12.663 16.0911C12.9689 16.181 13.1442 16.5019 13.0543 16.8078C12.9644 17.1137 12.6435 17.2887 12.3376 17.1989C11.9578 17.0873 11.5879 16.8654 11.3794 16.4596C11.2065 16.1231 11.1137 15.7607 11.0767 15.3904C11.0451 15.0732 11.2766 14.7902 11.5939 14.7585ZM2.41957 15.0747C2.61063 14.8195 2.97256 14.7673 3.22783 14.9584C3.48309 15.1494 3.53502 15.5113 3.34397 15.7666C3.14308 16.035 2.95304 16.2923 2.77589 16.5356C2.5882 16.7933 2.22718 16.8503 1.96944 16.6626C1.71168 16.4749 1.65501 16.1137 1.8427 15.8559C2.02293 15.6084 2.2158 15.347 2.41957 15.0747ZM17.5768 15.0788C17.8749 14.9657 18.2084 15.1156 18.3215 15.4137C18.4346 15.7118 18.2845 16.0453 17.9864 16.1583C17.7463 16.2494 17.4965 16.3406 17.2408 16.4296C16.9397 16.5344 16.6107 16.3753 16.5058 16.0742C16.401 15.7731 16.5601 15.4439 16.8613 15.339C17.1062 15.2538 17.3461 15.1663 17.5768 15.0788ZM4.81479 12.0208C5.01721 11.7744 5.3812 11.7387 5.62756 11.9412C5.87388 12.1436 5.90934 12.5074 5.70694 12.7537C5.2925 13.2581 4.89012 13.7605 4.50786 14.248C4.3111 14.4989 3.94825 14.5428 3.69735 14.3461C3.4465 14.1493 3.40258 13.7865 3.59925 13.5356C3.9865 13.0418 4.39441 12.5324 4.81479 12.0208ZM11.8361 11.6336C11.9449 11.3339 12.2761 11.1792 12.5758 11.2881C12.8754 11.3969 13.0301 11.7281 12.9212 12.0278C12.7118 12.6045 12.5262 13.1624 12.3969 13.6876C12.3207 13.9971 12.0081 14.1863 11.6985 14.1102C11.3889 14.034 11.1997 13.7211 11.2759 13.4115C11.4197 12.8271 11.6215 12.2244 11.8361 11.6336ZM7.36901 9.0843C7.58626 8.85093 7.95155 8.83774 8.18493 9.05498C8.4183 9.27223 8.43125 9.63753 8.21402 9.87091C7.79105 10.3253 7.36389 10.8028 6.9403 11.2912C6.73139 11.5321 6.36683 11.5581 6.12595 11.3492C5.88512 11.1403 5.85915 10.7757 6.068 10.5348C6.49909 10.0378 6.93546 9.55003 7.36901 9.0843ZM13.0085 8.28867C13.0862 7.97945 13.3998 7.79159 13.709 7.86921C14.0182 7.94687 14.2061 8.26065 14.1284 8.5699C13.9862 9.13637 13.7764 9.74006 13.5531 10.3429C13.4424 10.6419 13.1104 10.7946 12.8114 10.6839C12.5124 10.5732 12.3597 10.241 12.4704 9.94194C12.6908 9.34678 12.8823 8.7915 13.0085 8.28867ZM10.2306 6.36794C10.4816 6.17141 10.8445 6.21546 11.0411 6.46649C11.2377 6.71754 11.1934 7.08043 10.9423 7.277C10.5073 7.61761 10.0359 8.03636 9.54142 8.51352C9.31198 8.7348 8.94664 8.72821 8.72527 8.49886C8.50388 8.26941 8.51027 7.90388 8.7397 7.68248C9.25332 7.18691 9.75539 6.74003 10.2306 6.36794ZM12.0695 5.29606C12.5294 5.1549 13.0615 5.1274 13.5056 5.4546C13.8725 5.725 14.1012 6.08374 14.2182 6.48837C14.3067 6.79462 14.1302 7.11465 13.824 7.20326C13.5177 7.29186 13.1975 7.11534 13.1089 6.80905C13.056 6.62617 12.9649 6.49062 12.8204 6.38418C12.7952 6.36558 12.6986 6.31059 12.4082 6.39974C12.1034 6.4933 11.7806 6.32207 11.687 6.01726C11.5934 5.71245 11.7647 5.38962 12.0695 5.29606Z" fill="white"/>
<path d="M20.1805 17.7615C20.0221 18.0177 19.603 17.9445 19.534 17.6501L18.99 15.3444C18.9726 15.2776 18.9389 15.2164 18.8862 15.1703L17.2708 13.7148C17.0326 13.4983 17.1942 13.1298 17.519 13.1482L22.242 13.4364C22.5057 13.4508 22.6678 13.7276 22.5366 13.9402L20.1839 17.7625L20.1805 17.7615Z" fill="#44D62C"/>
</svg>
