<svg width="24" height="24" viewBox="0 0 24 24" fill="none" xmlns="http://www.w3.org/2000/svg">
<path d="M8 8.4V16C8 16.2833 7.904 16.521 7.712 16.713C7.52 16.905 7.28267 17.0007 7 17C6.71733 16.9993 6.48 16.9033 6.288 16.712C6.096 16.5207 6 16.2833 6 16V6C6 5.71667 6.096 5.47933 6.288 5.288C6.48 5.09667 6.71733 5.00067 7 5H17C17.2833 5 17.521 5.096 17.713 5.288C17.905 5.48 18.0007 5.71733 18 6C17.9993 6.28267 17.9033 6.52033 17.712 6.713C17.5207 6.90567 17.2833 7.00133 17 7H9.4L18.3 15.9C18.4833 16.0833 18.575 16.3167 18.575 16.6C18.575 16.8833 18.4833 17.1167 18.3 17.3C18.1167 17.4833 17.8833 17.575 17.6 17.575C17.3167 17.575 17.0833 17.4833 16.9 17.3L8 8.4Z" fill="#E0E0E0"/>
</svg>
