<svg width="24" height="24" viewBox="0 0 24 24" fill="none" xmlns="http://www.w3.org/2000/svg">
<path d="M11 7.825L6.10004 12.725C5.90004 12.925 5.6667 13.021 5.40004 13.013C5.13337 13.005 4.90004 12.9007 4.70004 12.7C4.5167 12.5 4.4207 12.2667 4.41204 12C4.40337 11.7333 4.49937 11.5 4.70004 11.3L11.3 4.7C11.4 4.6 11.5084 4.52934 11.625 4.488C11.7417 4.44667 11.8667 4.42567 12 4.425C12.1334 4.42434 12.2584 4.44534 12.375 4.488C12.4917 4.53067 12.6 4.60134 12.7 4.7L19.3 11.3C19.4834 11.4833 19.575 11.7127 19.575 11.988C19.575 12.2633 19.4834 12.5007 19.3 12.7C19.1 12.9 18.8627 13 18.588 13C18.3134 13 18.0757 12.9 17.875 12.7L13 7.825V19C13 19.2833 12.904 19.521 12.712 19.713C12.52 19.905 12.2827 20.0007 12 20C11.7174 19.9993 11.48 19.9033 11.288 19.712C11.096 19.5207 11 19.2833 11 19V7.825Z" fill="#E0E0E0"/>
</svg>
