<svg width="24" height="24" viewBox="0 0 24 24" fill="none" xmlns="http://www.w3.org/2000/svg">
<path d="M18.293 4.29295C18.6835 3.90243 19.3165 3.90243 19.707 4.29295L21.707 6.29295C22.0976 6.68348 22.0976 7.31649 21.707 7.70702L19.707 9.70702C19.3165 10.0975 18.6835 10.0975 18.293 9.70702C17.9024 9.31649 17.9024 8.68348 18.293 8.29295L18.5596 8.02538C18.1247 8.04914 17.8315 8.09458 17.5576 8.17967C17.0446 8.33909 16.5691 8.60096 16.1592 8.94823C15.7234 9.31741 15.3816 9.83532 14.4863 11.2422L12.2012 14.832C11.3746 16.1309 10.8559 16.9664 10.1338 17.5781C9.51884 18.0991 8.80483 18.4904 8.03516 18.7295C7.13135 19.0102 6.14814 19 4.6084 19H3C2.44772 19 2 18.5523 2 18C2 17.4477 2.44772 17 3 17H4.6084C6.27611 17 6.89695 16.9897 7.44238 16.8203C7.95541 16.6609 8.43091 16.399 8.84082 16.0517C9.27655 15.6826 9.6184 15.1647 10.5137 13.7578L12.7988 10.168C13.6254 8.86903 14.1441 8.0336 14.8662 7.42186C15.4812 6.90089 16.1952 6.50961 16.9648 6.27049C17.4619 6.11608 17.9829 6.04984 18.6074 6.02147L18.293 5.70702C17.9024 5.31649 17.9024 4.68348 18.293 4.29295Z" fill="white"/>
<path d="M4.6084 4.99999C6.14814 4.99999 7.13135 4.98973 8.03516 5.27049C8.80483 5.50961 9.51884 5.90089 10.1338 6.42186C10.8559 7.0336 11.3746 7.86903 12.2012 9.16796L14.4863 12.7578C15.3816 14.1647 15.7234 14.6826 16.1592 15.0517C16.5691 15.399 17.0446 15.6609 17.5576 15.8203C17.8315 15.9054 18.1247 15.9499 18.5596 15.9736L18.293 15.707C17.9024 15.3165 17.9024 14.6835 18.293 14.293C18.6835 13.9024 19.3165 13.9024 19.707 14.293L21.707 16.293C22.0976 16.6835 22.0976 17.3165 21.707 17.707L19.707 19.707C19.3165 20.0975 18.6835 20.0975 18.293 19.707C17.9024 19.3165 17.9024 18.6835 18.293 18.293L18.6074 17.9775C17.9829 17.9492 17.4619 17.8839 16.9648 17.7295C16.1952 17.4904 15.4812 17.0991 14.8662 16.5781C14.1441 15.9664 13.6254 15.1309 12.7988 13.832L10.5137 10.2422C9.6184 8.83531 9.27655 8.31741 8.84082 7.94823C8.43091 7.60097 7.95541 7.33909 7.44238 7.17967C6.89695 7.01022 6.27611 6.99999 4.6084 6.99999H3C2.44772 6.99999 2 6.55227 2 5.99999C2 5.4477 2.44772 4.99999 3 4.99999H4.6084Z" fill="#FF66CC"/>
</svg>
