<svg width="24" height="24" viewBox="0 0 24 24" fill="none" xmlns="http://www.w3.org/2000/svg">
<path d="M7.19991 3.60001H11.9999C13.9859 3.60001 15.5999 5.21401 15.5999 7.20001V8.5H13.7999V7.20001C13.7999 6.20401 12.9959 5.40001 11.9999 5.40001H7.19991C6.20991 5.40001 5.39991 6.20401 5.39991 7.20001V12C5.39991 12.99 6.20991 13.8 7.19991 13.8H8.79665V15.6H7.19991C5.21991 15.6 3.59991 13.98 3.59991 12V7.20001C3.59991 5.21401 5.21991 3.60001 7.19991 3.60001Z" fill="white"/>
<path d="M16.1068 7.6618H11.3068C9.32679 7.6618 7.70679 9.2758 7.70679 11.2618V16.0618C7.70679 18.0418 9.32679 19.6618 11.3068 19.6618H16.1068C18.0928 19.6618 19.7068 18.0418 19.7068 16.0618V11.2618C19.7068 9.2758 18.0928 7.6618 16.1068 7.6618ZM17.9068 16.0618C17.9068 17.0518 17.1028 17.8618 16.1068 17.8618H11.3068C10.3168 17.8618 9.50679 17.0518 9.50679 16.0618V11.2618C9.50679 10.2658 10.3168 9.4618 11.3068 9.4618H16.1068C17.1028 9.4618 17.9068 10.2658 17.9068 11.2618V16.0618Z" fill="white"/>
<path d="M16.0724 12.7422C16.5538 12.7422 16.944 13.1558 16.944 13.666C16.944 14.1761 16.5538 14.5897 16.0724 14.5897H11.8114C11.33 14.5897 10.9398 14.1761 10.9398 13.666C10.9398 13.1558 11.33 12.7422 11.8114 12.7422H16.0724Z" fill="#FF66CC"/>
<path d="M14.8657 15.7965C14.8657 16.2778 14.4522 16.6681 13.942 16.6681C13.4318 16.6681 13.0183 16.2778 13.0183 15.7965L13.0183 11.5355C13.0183 11.0541 13.4318 10.6639 13.942 10.6639C14.4522 10.6639 14.8657 11.0541 14.8657 11.5355L14.8657 15.7965Z" fill="#FF66CC"/>
</svg>
