<svg width="24" height="24" viewBox="0 0 24 24" fill="none" xmlns="http://www.w3.org/2000/svg">
<path d="M11 5.5V3C11 2.44772 11.4477 2 12 2C12.5523 2 13 2.44772 13 3V5.5C13 6.05228 12.5523 6.5 12 6.5C11.4477 6.5 11 6.05228 11 5.5Z" fill="#FF66CC"/>
<path d="M11 21.5V19C11 18.4477 11.4477 18 12 18C12.5523 18 13 18.4477 13 19V21.5C13 22.0523 12.5523 22.5 12 22.5C11.4477 22.5 11 22.0523 11 21.5Z" fill="#FF66CC"/>
<path d="M18 11L20.5 11C21.0523 11 21.5 11.4477 21.5 12C21.5 12.5523 21.0523 13 20.5 13L18 13C17.4477 13 17 12.5523 17 12C17 11.4477 17.4477 11 18 11Z" fill="#FF66CC"/>
<path d="M3 11L5.5 11C6.05228 11 6.5 11.4477 6.5 12C6.5 12.5523 6.05228 13 5.5 13L3 13C2.44772 13 2 12.5523 2 12C2 11.4477 2.44772 11 3 11Z" fill="#FF66CC"/>
<path d="M2 6V5C2 3.34315 3.34315 2 5 2H6.5C7.05228 2 7.5 2.44772 7.5 3C7.5 3.55228 7.05228 4 6.5 4H5C4.44772 4 4 4.44772 4 5V6C4 6.55228 3.55228 7 3 7C2.44772 7 2 6.55228 2 6Z" fill="white"/>
<path d="M22 18.5L22 19.5C22 21.1569 20.6569 22.5 19 22.5L17.5 22.5C16.9477 22.5 16.5 22.0523 16.5 21.5C16.5 20.9477 16.9477 20.5 17.5 20.5L19 20.5C19.5523 20.5 20 20.0523 20 19.5L20 18.5C20 17.9477 20.4477 17.5 21 17.5C21.5523 17.5 22 17.9477 22 18.5Z" fill="white"/>
<path d="M18 2L19 2C20.6569 2 22 3.34315 22 5L22 6.5C22 7.05228 21.5523 7.5 21 7.5C20.4477 7.5 20 7.05228 20 6.5L20 5C20 4.44772 19.5523 4 19 4L18 4C17.4477 4 17 3.55228 17 3C17 2.44772 17.4477 2 18 2Z" fill="white"/>
<path d="M6 22.5L5 22.5C3.34315 22.5 2 21.1569 2 19.5L2 18C2 17.4477 2.44772 17 3 17C3.55229 17 4 17.4477 4 18L4 19.5C4 20.0523 4.44772 20.5 5 20.5L6 20.5C6.55228 20.5 7 20.9477 7 21.5C7 22.0523 6.55228 22.5 6 22.5Z" fill="white"/>
<path d="M14 12C14 13.1046 13.1046 14 12 14C10.8954 14 10 13.1046 10 12C10 10.8954 10.8954 10 12 10C13.1046 10 14 10.8954 14 12Z" fill="#FF66CC"/>
</svg>
