<svg width="24" height="24" viewBox="0 0 24 24" fill="none" xmlns="http://www.w3.org/2000/svg">
<path d="M12 18C11.84 18 11.6874 17.9726 11.5422 17.9178C11.397 17.863 11.2696 17.7754 11.16 17.655L6.375 12.855C6.265 12.735 6.175 12.6024 6.105 12.4572C6.035 12.312 6 12.1596 6 12C6 11.8404 6.035 11.6878 6.105 11.5422C6.175 11.3966 6.265 11.2692 6.375 11.16L11.16 6.36C11.28 6.24 11.41 6.15 11.55 6.09C11.69 6.03 11.84 6 12 6C12.16 6 12.315 6.03 12.465 6.09C12.615 6.15 12.745 6.24 12.855 6.36L17.625 11.16C17.735 11.28 17.825 11.41 17.895 11.55C17.965 11.69 18 11.84 18 12C18 12.16 17.9676 12.3126 17.9028 12.4578C17.838 12.603 17.7454 12.7354 17.625 12.855L12.855 17.655C12.745 17.765 12.615 17.85 12.465 17.91C12.315 17.97 12.16 18 12 18Z" fill="#FF66CC"/>
</svg>
