<svg width="24" height="24" viewBox="0 0 24 24" fill="none" xmlns="http://www.w3.org/2000/svg">
<path d="M7 5C7.7874 5 8.43924 5.31028 8.92774 5.83301C9.38545 6.32279 9.66535 6.95969 9.85059 7.59473C10.2184 8.85565 10.3124 10.4783 10.374 11.958C10.4386 13.5078 10.4689 14.9096 10.6563 15.9473C10.7503 16.4683 10.8659 16.7804 10.9697 16.9404C10.9884 16.9692 11.0044 16.9868 11.0147 16.998C11.1299 16.9956 11.1828 16.9663 11.2334 16.9199C11.3117 16.8481 11.4209 16.6953 11.5322 16.3984C11.7631 15.7826 11.8779 14.9155 12.0078 13.876C12.1279 12.9157 12.2632 11.7826 12.5947 10.8984C12.7646 10.4455 13.0151 9.97292 13.4131 9.60742C13.8368 9.21841 14.3759 9 15 9C15.62 9 16.1291 9.26372 16.5 9.66699C16.8424 10.0394 17.0503 10.5099 17.1885 10.9521C17.4635 11.8325 17.5611 12.9464 17.6231 13.9375C17.689 14.9922 17.716 15.9099 17.8174 16.6055C17.823 16.6438 17.8293 16.6804 17.835 16.7148C17.9202 16.5961 18.018 16.443 18.1426 16.2354C18.3146 15.9486 18.5645 15.5215 18.9023 15.1836C19.2771 14.8089 19.7998 14.5 20.5 14.5C21.0523 14.5 21.5 14.9477 21.5 15.5C21.5 16.0523 21.0523 16.5 20.5 16.5C20.4502 16.5 20.4104 16.5036 20.3164 16.5977C20.1856 16.7285 20.0604 16.9264 19.8574 17.2646C19.6854 17.5514 19.4355 17.9785 19.0977 18.3164C18.7229 18.6911 18.2002 19 17.5 19C16.754 19 16.3469 18.4629 16.167 18.0967C15.9883 17.7328 15.897 17.293 15.8389 16.8945C15.7216 16.0902 15.686 15.0076 15.627 14.0625C15.5639 13.0537 15.4739 12.1674 15.2803 11.5479C15.1841 11.2403 15.0871 11.0855 15.0273 11.0205C14.9961 10.9866 15.005 11 15 11C14.8745 11 14.8193 11.0318 14.7666 11.0801C14.6883 11.1519 14.5791 11.3047 14.4678 11.6016C14.2369 12.2174 14.1221 13.0845 13.9922 14.124C13.8722 15.0843 13.7368 16.2174 13.4053 17.1016C13.2354 17.5545 12.9849 18.0271 12.5869 18.3926C12.1632 18.7816 11.6241 19 11 19C10.2125 19 9.64521 18.5727 9.292 18.0283C8.97011 17.5321 8.79654 16.9066 8.6875 16.3027C8.46862 15.0905 8.4364 13.4921 8.37598 12.042C8.31265 10.522 8.21906 9.14423 7.93067 8.15527C7.78779 7.6654 7.6223 7.36464 7.4668 7.19824C7.34202 7.06473 7.2126 7 7 7C6.74592 7 6.42458 7.13535 6.05079 7.84766C5.6772 8.55968 5.39216 9.60801 5.15821 10.8701C4.92675 12.1189 4.76218 13.4731 4.58789 14.7803C4.41781 16.0559 4.23535 17.3172 3.96192 18.2744C3.81023 18.8053 3.25651 19.1134 2.72559 18.9619C2.19468 18.8102 1.88662 18.2565 2.03809 17.7256C2.26458 16.9329 2.43185 15.8188 2.60547 14.5166C2.7749 13.2459 2.94792 11.8184 3.19141 10.5049C3.43242 9.20474 3.76022 7.909 4.28028 6.91797C4.80024 5.92722 5.65417 5 7 5Z" fill="white"/>
<path d="M21.5 12C22.0523 12 22.5 12.4477 22.5 13C22.5 13.5523 22.0523 14 21.5 14H2C1.44772 14 1 13.5523 1 13C1 12.4477 1.44772 12 2 12H21.5Z" fill="#FF66CC"/>
</svg>
