<svg width="24" height="24" viewBox="0 0 24 24" fill="none" xmlns="http://www.w3.org/2000/svg">
<path d="M19.876 6.50781C20.424 6.43931 20.9237 6.82796 20.9922 7.37598C21.5176 11.5791 20.6117 14.7432 18.9062 16.875C17.2069 18.9992 14.7881 20 12.5 20C10.2992 20 8.18086 19.3124 6.59668 17.9443C4.99513 16.5612 4 14.5318 4 12C4 9.84779 4.53726 7.83903 5.80078 6.35254C7.08648 4.83995 9.01209 4 11.5 4C13.2449 4 14.5892 4.6034 15.4922 5.625C16.3741 6.62283 16.7447 7.91618 16.7734 9.1582C16.8021 10.4011 16.4933 11.6756 15.918 12.7188C15.3486 13.751 14.45 14.6678 13.2422 14.9697C10.3209 15.6998 8.03043 12.0555 10.293 9.79297C10.6835 9.40244 11.3165 9.40244 11.707 9.79297C12.0976 10.1835 12.0976 10.8165 11.707 11.207C10.9696 11.9444 11.6792 13.2999 12.7578 13.0303C13.2476 12.9077 13.7608 12.4875 14.166 11.7529C14.5652 11.0291 14.7941 10.1059 14.7734 9.20508C14.7526 8.30349 14.4863 7.50612 13.9941 6.94922C13.5228 6.41595 12.7551 6 11.5 6C9.48791 6 8.16352 6.66005 7.32422 7.64746C6.46274 8.66097 6 10.1522 6 12C6 13.9681 6.75497 15.4388 7.90332 16.4307C9.06912 17.4375 10.7009 18 12.5 18C14.2119 18 16.0431 17.2508 17.3438 15.625C18.6383 14.0068 19.4824 11.4209 19.0078 7.62402C18.9393 7.076 19.328 6.57631 19.876 6.50781Z" fill="#FF66CC"/>
</svg>
