<svg width="24" height="24" viewBox="0 0 24 24" fill="none" xmlns="http://www.w3.org/2000/svg">
<path d="M16 14.175L7.10005 5.275C6.91672 5.09167 6.68338 5 6.40005 5C6.11672 5 5.88338 5.09167 5.70005 5.275C5.51672 5.45833 5.42505 5.69167 5.42505 5.975C5.42505 6.25833 5.51672 6.49167 5.70005 6.675L14.6 15.575H7.00005C6.71672 15.575 6.47938 15.671 6.28805 15.863C6.09672 16.055 6.00072 16.2923 6.00005 16.575C5.99938 16.8577 6.09538 17.095 6.28805 17.287C6.48072 17.479 6.71805 17.575 7.00005 17.575H17C17.2834 17.575 17.521 17.479 17.713 17.287C17.905 17.095 18.0007 16.8577 18 16.575V6.575C18 6.29167 17.904 6.054 17.712 5.862C17.52 5.67 17.2827 5.57433 17 5.575C16.7174 5.57567 16.48 5.67167 16.288 5.863C16.096 6.05433 16 6.29167 16 6.575V14.175Z" fill="#E0E0E0"/>
</svg>
