<svg width="24" height="24" viewBox="0 0 24 24" fill="none" xmlns="http://www.w3.org/2000/svg">
<path d="M11 16.175V5C11 4.71667 11.096 4.47933 11.288 4.288C11.48 4.09667 11.7174 4.00067 12 4C12.2827 3.99933 12.5204 4.09533 12.713 4.288C12.9057 4.48067 13.0014 4.718 13 5V16.175L17.9 11.275C18.1 11.075 18.3334 10.979 18.6 10.987C18.8667 10.995 19.1 11.0993 19.3 11.3C19.4834 11.5 19.579 11.7333 19.587 12C19.595 12.2667 19.4994 12.5 19.3 12.7L12.7 19.3C12.6 19.4 12.4917 19.471 12.375 19.513C12.2584 19.555 12.1334 19.5757 12 19.575C11.8667 19.5743 11.7417 19.5537 11.625 19.513C11.5084 19.4723 11.4 19.4013 11.3 19.3L4.70005 12.7C4.51672 12.5167 4.42505 12.2877 4.42505 12.013C4.42505 11.7383 4.51672 11.5007 4.70005 11.3C4.90005 11.1 5.13772 11 5.41305 11C5.68838 11 5.92572 11.1 6.12505 11.3L11 16.175Z" fill="#E0E0E0"/>
</svg>
