<svg width="24" height="24" viewBox="0 0 24 24" fill="none" xmlns="http://www.w3.org/2000/svg">
<path d="M7.00039 4C7.75879 4.00009 8.40199 4.2724 8.89785 4.75879C9.36595 5.21803 9.65322 5.81908 9.84316 6.41602C10.2178 7.59357 10.3129 9.10153 10.3744 10.4551C10.4393 11.8839 10.4683 13.1516 10.6527 14.0879C10.7448 14.5553 10.8557 14.8204 10.9467 14.9492C11.0019 15.0272 10.9982 15 11.0004 15C11.1807 14.9999 11.2626 14.9557 11.3119 14.9189C11.3755 14.8715 11.465 14.7734 11.5609 14.5654C11.7707 14.111 11.8802 13.4552 12.0121 12.5977C12.1302 11.8303 12.2707 10.8609 12.6234 10.0967C12.8087 9.69531 13.0787 9.28558 13.4916 8.97754C13.9189 8.65883 14.4312 8.5 15.0004 8.5C15.5532 8.50008 16.0398 8.68888 16.4262 9.03027C16.7899 9.35182 17.0171 9.76558 17.1674 10.1562C17.4608 10.9191 17.5606 11.8691 17.6225 12.6729C17.6847 13.482 17.7117 14.1493 17.7914 14.6738C17.8101 14.6376 17.8331 14.5981 17.8559 14.5527C17.965 14.3344 18.158 13.9283 18.4809 13.6055C18.858 13.2284 19.3633 13 20.0004 13C20.5525 13.0002 21.0004 13.4478 21.0004 14C21.0004 14.5522 20.5525 14.9998 20.0004 15C19.9623 15 19.9372 15.0033 19.9232 15.0059L19.9047 15.0107L19.9027 15.0117C19.901 15.0131 19.8986 15.0159 19.8949 15.0195C19.8429 15.0716 19.7857 15.1657 19.6449 15.4473C19.5358 15.6656 19.3427 16.0716 19.0199 16.3945C18.6428 16.7716 18.1374 16.9999 17.5004 17C16.8617 17 16.4377 16.6175 16.2084 16.2383C16.004 15.9002 15.9048 15.499 15.8441 15.1611C15.7229 14.4857 15.6856 13.5725 15.6283 12.8271C15.5652 12.0062 15.4764 11.3308 15.3012 10.875C15.2172 10.6566 15.1401 10.5621 15.1019 10.5283C15.0861 10.5143 15.0721 10.5 15.0004 10.5C14.8196 10.5 14.7372 10.5443 14.6879 10.5811C14.6243 10.6285 14.5348 10.7266 14.4389 10.9346C14.2291 11.389 14.1206 12.0448 13.9887 12.9023C13.8706 13.6697 13.7291 14.6391 13.3764 15.4033C13.1911 15.8047 12.9212 16.2144 12.5082 16.5225C12.081 16.8411 11.5695 16.9999 11.0004 17C10.2528 17 9.68542 16.6288 9.31484 16.1055C8.98017 15.6326 8.80177 15.0379 8.69081 14.4746C8.46902 13.3486 8.4364 11.8658 8.37636 10.5449C8.31289 9.14878 8.21941 7.90629 7.93789 7.02148C7.79981 6.58768 7.64243 6.32883 7.49746 6.18652C7.38018 6.07148 7.24159 6.00007 7.00039 6C6.84165 6 6.5697 6.07632 6.24941 6.78125C5.93564 7.47199 5.72074 8.48647 5.57949 9.67969C5.44035 10.8551 5.38156 12.1177 5.33828 13.2646C5.2963 14.377 5.26781 15.4419 5.18398 16.1221C5.11641 16.6701 4.61776 17.0596 4.06972 16.9922C3.52167 16.9246 3.13218 16.426 3.1996 15.8779C3.26986 15.3081 3.29456 14.3727 3.33925 13.1885C3.38265 12.0388 3.44382 10.7071 3.59316 9.44531C3.7404 8.20136 3.98237 6.93418 4.42812 5.95312C4.86748 4.98624 5.6592 4 7.00039 4Z" fill="white"/>
<path d="M21.5 17C22.0523 17 22.5 17.4477 22.5 18C22.5 18.5523 22.0523 19 21.5 19H2C1.44772 19 1 18.5523 1 18C1 17.4477 1.44772 17 2 17H21.5Z" fill="#44D62C"/>
</svg>
