<svg width="24" height="24" viewBox="0 0 24 24" fill="none" xmlns="http://www.w3.org/2000/svg">
<path d="M11.3333 9.33333L9.33333 9.33333M9.33333 17.968V16.1333C9.33333 15.3866 9.33333 15.0132 9.47866 14.728C9.60649 14.4771 9.81046 14.2732 10.0613 14.1453C10.3466 14 10.7199 14 11.4667 14H12.5333C13.2801 14 13.6534 14 13.9387 14.1453C14.1895 14.2732 14.3935 14.4771 14.5213 14.728C14.6667 15.0132 14.6667 15.3866 14.6667 16.1333V17.968M9.33333 17.968C9.85713 18 10.5029 18 11.3333 18H12.6667C13.4971 18 14.1429 18 14.6667 17.968M9.33333 17.968C8.67965 17.9281 8.21588 17.8384 7.82003 17.6367C7.19283 17.3171 6.68289 16.8072 6.36331 16.18C6 15.4669 6 14.5335 6 12.6667L6 11.3333C6 9.46649 6 8.53307 6.36331 7.82003C6.68289 7.19283 7.19283 6.68289 7.82003 6.36331C8.53307 6 9.46649 6 11.3333 6L12.4575 6C13.2728 6 13.6805 6 14.0641 6.0921C14.4042 6.17376 14.7294 6.30844 15.0276 6.4912C15.364 6.69734 15.6523 6.9856 16.2288 7.5621L16.4379 7.77124C17.0144 8.34774 17.3027 8.63599 17.5088 8.97238C17.6916 9.27062 17.8262 9.59577 17.9079 9.93589C18 10.3195 18 10.7272 18 11.5425V12.6667C18 14.5335 18 15.4669 17.6367 16.18C17.3171 16.8072 16.8072 17.3171 16.18 17.6367C15.7841 17.8384 15.3204 17.9281 14.6667 17.968" stroke="white" stroke-width="1.5" stroke-linecap="round" stroke-linejoin="round"/>
</svg>
