<svg width="24" height="24" viewBox="0 0 24 24" fill="none" xmlns="http://www.w3.org/2000/svg">
<path d="M11.5003 6C13.0552 6.00006 14.4612 6.70856 15.6013 7.56812C16.746 8.43122 17.6803 9.48976 18.3069 10.2935C18.5635 10.6226 18.8014 10.9129 18.929 11.3892C18.9824 11.5885 19 11.8116 19 12C19 12.1884 18.9824 12.4115 18.929 12.6108C18.8014 13.0871 18.5635 13.3774 18.3069 13.7065C17.6803 14.5102 16.746 15.5688 15.6013 16.4319C14.4612 17.2914 13.0552 17.9999 11.5003 18C9.94542 18 8.53882 17.2915 7.39875 16.4319C6.25404 15.5688 5.31964 14.5102 4.69311 13.7065C4.43652 13.3774 4.19864 13.0872 4.07098 12.6108C4.01758 12.4115 4 12.1884 4 12C4 11.8116 4.01758 11.5885 4.07098 11.3892C4.19864 10.9128 4.43652 10.6226 4.69311 10.2935C5.31964 9.48978 6.25404 8.43125 7.39875 7.56812C8.53882 6.70851 9.94542 6 11.5003 6ZM11.5003 7.5C10.357 7.5 9.23985 8.02539 8.22895 8.7876C7.22296 9.54612 6.37851 10.4969 5.79541 11.2449C5.50998 11.611 5.4767 11.6691 5.44259 11.7964C5.43704 11.8171 5.42519 11.8913 5.42519 12C5.42519 12.1087 5.43704 12.1829 5.44259 12.2036C5.4767 12.3309 5.50998 12.389 5.79541 12.7551C6.37851 13.5031 7.22296 14.4539 8.22895 15.2124C9.23985 15.9746 10.357 16.5 11.5003 16.5C12.6435 16.4999 13.7603 15.9745 14.7711 15.2124C15.7772 14.4538 16.6222 13.5031 17.2053 12.7551C17.4907 12.3891 17.5233 12.3309 17.5574 12.2036C17.563 12.1829 17.5748 12.1087 17.5748 12C17.5748 11.8913 17.563 11.8171 17.5574 11.7964C17.5233 11.6691 17.4907 11.6109 17.2053 11.2449C16.6222 10.4969 15.7772 9.5462 14.7711 8.7876C13.7603 8.02549 12.6435 7.50007 11.5003 7.5ZM12.2129 12C12.2129 11.5859 11.8938 11.2501 11.5003 11.25C11.1068 11.25 10.7878 11.5858 10.7878 12C10.7878 12.4142 11.1068 12.75 11.5003 12.75C11.8938 12.7499 12.2129 12.4141 12.2129 12ZM13.6381 12C13.6381 13.2426 12.6809 14.2499 11.5003 14.25C10.3197 14.25 9.36256 13.2426 9.36256 12C9.36256 10.7574 10.3197 9.75 11.5003 9.75C12.6809 9.75012 13.6381 10.7574 13.6381 12Z" fill="white"/>
</svg>
