<svg width="24" height="24" viewBox="0 0 24 24" fill="none" xmlns="http://www.w3.org/2000/svg">
<path d="M11.7 8.40001C12.012 8.40001 12.312 8.32801 12.6 8.40001V6.60001C12.6 4.94401 11.25 3.60001 9.6 3.60001H6C4.344 3.60001 3 4.94401 3 6.60001V17.4C3 19.05 4.344 20.4 6 20.4H9.6C11.25 20.4 12.6 19.05 12.6 17.4V15.486C12.312 15.558 12.012 15.6 11.7 15.6C11.388 15.6 11.088 14.8742 10.8 14.7962V17.4C10.8 18.06 10.26 18.6 9.6 18.6H6C5.334 18.6 4.8 18.06 4.8 17.4V6.60001C4.8 5.93401 5.334 5.40001 6 5.40001H9.6C10.26 5.40001 10.8 5.93401 10.8 6.60001V9.13846C11.088 9.06046 11.388 8.40001 11.7 8.40001Z" fill="white"/>
<path d="M8.64603 13.1542L11.694 15.6922C12.078 16.0102 12.642 15.9562 12.96 15.5782C13.278 15.1942 13.224 14.6302 12.846 14.3122L11.154 12.9022L14.484 12.9022C14.88 14.4562 16.296 15.6022 17.964 15.6022C19.95 15.6022 21.564 13.9882 21.564 12.0022C21.564 10.0162 19.95 8.4022 17.964 8.4022C16.296 8.4022 14.88 9.5542 14.484 11.1022L11.154 11.1022L12.846 9.6922C13.23 9.3742 13.278 8.8042 12.96 8.4262C12.78 8.2102 12.528 8.1022 12.27 8.1022C12.066 8.1022 11.862 8.1682 11.694 8.3122L8.64603 10.8502C8.30403 11.1382 8.10603 11.5582 8.10603 12.0022C8.10603 12.4462 8.30403 12.8662 8.64603 13.1542ZM17.97 10.2022C18.966 10.2022 19.77 11.0122 19.77 12.0022C19.77 12.9922 18.966 13.8022 17.97 13.8022C16.974 13.8022 16.17 12.9982 16.17 12.0022C16.17 11.0062 16.98 10.2022 17.97 10.2022Z" fill="#44D62C"/>
</svg>
