<svg width="24" height="24" viewBox="0 0 24 24" fill="none" xmlns="http://www.w3.org/2000/svg">
<path d="M16.2 20.7H7.80005C5.31605 20.7 3.30005 18.684 3.30005 16.2V7.79999C3.30005 5.31599 5.31605 3.29999 7.80005 3.29999H8.65805C9.15605 3.29999 9.55805 3.70199 9.55805 4.19999C9.55805 4.69799 9.15605 5.09999 8.65805 5.09999H7.80005C6.31205 5.09999 5.10005 6.31199 5.10005 7.79999V16.2C5.10005 17.688 6.31205 18.9 7.80005 18.9H16.2C17.688 18.9 18.9 17.688 18.9 16.2V13.116C18.9 12.618 19.302 12.216 19.8 12.216C20.298 12.216 20.7 12.618 20.7 13.116V16.2C20.7 18.684 18.684 20.7 16.2 20.7Z" fill="white"/>
<path d="M13.2 11.7C12.984 11.7 12.768 11.622 12.6 11.466L10.098 9.21C9.77998 8.928 9.59998 8.52 9.59998 8.094C9.59998 7.668 9.77998 7.26 10.098 6.978L12.6 4.722C12.972 4.386 13.536 4.422 13.872 4.788C14.202 5.16 14.172 5.724 13.806 6.06L11.55 8.094L13.806 10.128C14.178 10.458 14.208 11.028 13.872 11.4C13.692 11.598 13.452 11.7 13.2 11.7Z" fill="#44D62C"/>
<path d="M16.8 11.7C16.554 11.7 16.308 11.598 16.128 11.4C15.798 11.028 15.828 10.464 16.194 10.128L18.45 8.094L16.194 6.06C15.822 5.73 15.792 5.16 16.128 4.788C16.458 4.416 17.028 4.386 17.4 4.722L19.902 6.978C20.22 7.26 20.4 7.668 20.4 8.094C20.4 8.52 20.22 8.928 19.902 9.21L17.4 11.466C17.226 11.622 17.01 11.7 16.8 11.7Z" fill="#44D62C"/>
</svg>
