<svg width="24" height="24" viewBox="0 0 24 24" fill="none" xmlns="http://www.w3.org/2000/svg">
<path d="M16.175 13H5C4.71667 13 4.47934 12.904 4.288 12.712C4.09667 12.52 4.00067 12.2827 4 12C3.99934 11.7173 4.09534 11.48 4.288 11.288C4.48067 11.096 4.718 11 5 11H16.175L11.275 6.1C11.075 5.9 10.979 5.66667 10.987 5.4C10.995 5.13333 11.0993 4.9 11.3 4.7C11.5 4.51667 11.7333 4.42067 12 4.412C12.2667 4.40333 12.5 4.49933 12.7 4.7L19.3 11.3C19.4 11.4 19.471 11.5083 19.513 11.625C19.555 11.7417 19.5757 11.8667 19.575 12C19.5743 12.1333 19.5537 12.2583 19.513 12.375C19.4723 12.4917 19.4013 12.6 19.3 12.7L12.7 19.3C12.5167 19.4833 12.2877 19.575 12.013 19.575C11.7383 19.575 11.5007 19.4833 11.3 19.3C11.1 19.1 11 18.8627 11 18.588C11 18.3133 11.1 18.0757 11.3 17.875L16.175 13Z" fill="#E0E0E0"/>
</svg>
