<svg width="24" height="24" viewBox="0 0 24 24" fill="none" xmlns="http://www.w3.org/2000/svg">
<path d="M12.3815 7.0685C12.2605 7.02283 12.1333 7 12 7L12 17C12.1333 17 12.2583 16.975 12.375 16.925C12.4917 16.875 12.6 16.8 12.7 16.7L16.6875 12.7C16.7792 12.609 16.8542 12.5028 16.9125 12.3815C16.9708 12.2602 17 12.133 17 12C17 11.867 16.9708 11.74 16.9125 11.619C16.8542 11.498 16.7792 11.3875 16.6875 11.2875L12.7 7.2875C12.6087 7.18717 12.5025 7.11417 12.3815 7.0685Z" fill="white"/>
<path d="M7.17938 16.856C7.29938 16.952 7.44792 17 7.625 17L12 17L12 16L12 12.5L12 11.5L12 8.00001L12 7.00001L7.625 7.00001C7.44792 6.99934 7.29959 7.04717 7.18 7.14351C7.06042 7.23984 7.00042 7.35867 7 7.50001C6.99959 7.64134 7.05938 7.76001 7.17938 7.85601C7.29938 7.95201 7.44792 8.00001 7.625 8.00001L8.25 8.00001L8.25 9.5C8.24959 10.008 8.39792 10.485 8.695 10.931C8.99208 11.377 9.40625 11.7333 9.9375 12C9.40583 12.2663 8.99167 12.6225 8.695 13.0685C8.39833 13.5145 8.25 13.9917 8.25 14.5L8.25 16L7.625 16C7.44792 15.9993 7.29958 16.0472 7.18 16.1435C7.06042 16.2398 7.00042 16.3587 7 16.5C6.99958 16.6413 7.05938 16.76 7.17938 16.856Z" fill="white"/>
</svg>
