<svg width="24" height="24" viewBox="0 0 24 24" fill="none" xmlns="http://www.w3.org/2000/svg">
<path d="M8.88889 15.1111H15.1111V8.88889H8.88889V15.1111ZM6.55556 19C6.12778 19 5.7617 18.8478 5.45733 18.5434C5.15296 18.2391 5.00052 17.8727 5 17.4444V6.55556C5 6.12778 5.15244 5.7617 5.45733 5.45733C5.76222 5.15296 6.1283 5.00052 6.55556 5H17.4444C17.8722 5 18.2386 5.15244 18.5434 5.45733C18.8483 5.76222 19.0005 6.1283 19 6.55556V17.4444C19 17.8722 18.8478 18.2386 18.5434 18.5434C18.2391 18.8483 17.8727 19.0005 17.4444 19H6.55556ZM6.55556 17.4444H17.4444V6.55556H6.55556V17.4444Z" fill="#FF4B4B"/>
</svg>
