<svg width="24" height="24" viewBox="0 0 24 24" fill="none" xmlns="http://www.w3.org/2000/svg">
<path d="M8 14.175V6.575C8 6.29167 7.904 6.054 7.712 5.862C7.52 5.67 7.28267 5.57433 7 5.575C6.71733 5.57567 6.48 5.67167 6.288 5.863C6.096 6.05433 6 6.29167 6 6.575V16.575C6 16.8583 6.096 17.0957 6.288 17.287C6.48 17.4783 6.71733 17.5743 7 17.575H17C17.2833 17.575 17.521 17.479 17.713 17.287C17.905 17.095 18.0007 16.8577 18 16.575C17.9993 16.2923 17.9033 16.0547 17.712 15.862C17.5207 15.6693 17.2833 15.5737 17 15.575H9.4L18.3 6.675C18.4833 6.49167 18.575 6.25833 18.575 5.975C18.575 5.69167 18.4833 5.45833 18.3 5.275C18.1167 5.09167 17.8833 5 17.6 5C17.3167 5 17.0833 5.09167 16.9 5.275L8 14.175Z" fill="#E0E0E0"/>
</svg>
