<svg width="24" height="24" viewBox="0 0 24 24" fill="none" xmlns="http://www.w3.org/2000/svg">
<path d="M10 13C10.552 13.736 11.22 14.364 11.992 14.843C12.764 15.322 13.624 15.641 14.52 15.782C15.416 15.922 16.33 15.88 17.208 15.657C18.087 15.434 18.911 15.035 19.63 14.484L20.784 13.33C22.103 11.963 22.834 10.134 22.818 8.238C22.802 6.341 22.04 4.525 20.698 3.179C19.356 1.834 17.543 1.069 15.646 1.05C13.75 1.031 11.923 1.759 10.554 3.077L9.41 4.221" stroke="#FFD700" stroke-width="2" stroke-linecap="round" stroke-linejoin="round"/>
<path d="M14 11C13.448 10.264 12.78 9.636 12.008 9.157C11.236 8.678 10.376 8.359 9.48 8.218C8.584 8.078 7.67 8.12 6.792 8.343C5.913 8.566 5.089 8.965 4.37 9.516L3.216 10.67C1.897 12.037 1.166 13.866 1.182 15.762C1.198 17.659 1.96 19.475 3.302 20.821C4.644 22.166 6.457 22.931 8.354 22.95C10.25 22.969 12.077 22.241 13.446 20.923L14.58 19.779" stroke="#FFD700" stroke-width="2" stroke-linecap="round" stroke-linejoin="round"/>
</svg>
