<svg width="24" height="24" viewBox="0 0 24 24" fill="none" xmlns="http://www.w3.org/2000/svg">
<path d="M13.0061 5.98561C13.3561 5.90635 13.8167 5.903 14.1612 6.24743C14.4889 6.5752 14.5787 7.02172 14.5824 7.42261C14.5863 7.83123 14.5026 8.29105 14.3802 8.75925C14.1352 9.69583 13.6942 10.8112 13.2808 11.8734C12.8582 12.9589 12.4638 13.9898 12.2693 14.8241C12.1719 15.2419 12.1349 15.5694 12.1532 15.8069C12.1713 16.0427 12.2359 16.1109 12.2623 16.1316C12.5206 16.3346 13.0177 16.4797 13.7571 16.5198C14.472 16.5584 15.3154 16.4948 16.1696 16.3748C17.4972 16.1882 18.7954 15.8739 19.5878 15.6416C19.8938 15.552 20.2255 15.7086 20.3345 16.0083C20.4435 16.3079 20.2888 16.6377 19.9832 16.7288C19.131 16.9827 17.7425 17.3197 16.3302 17.5181C15.4381 17.6435 14.5134 17.7169 13.6948 17.6726C12.9008 17.6296 12.0987 17.4717 11.5488 17.0396C11.1712 16.7428 11.0336 16.3058 11.0021 15.8953C10.9707 15.4865 11.0366 15.0264 11.1449 14.562C11.3617 13.6319 11.79 12.5194 12.2046 11.4544C12.6282 10.3661 13.0389 9.32369 13.2629 8.46698C13.375 8.03854 13.4302 7.69278 13.4278 7.43343C13.4268 7.32844 13.4166 7.25178 13.4034 7.19627C13.3883 7.13226 13.3253 7.09731 13.2611 7.11184C13.0806 7.15274 12.8157 7.26741 12.4669 7.47786C11.7772 7.89399 10.903 8.59518 9.95843 9.45294C8.24732 11.0069 6.3814 13.0049 5.10042 14.5394C4.89609 14.7842 4.53297 14.823 4.28486 14.6227C4.03676 14.4224 3.99754 14.059 4.20176 13.8142C5.51523 12.2392 7.42359 10.1953 9.1822 8.59823C10.1438 7.72498 11.0838 6.96382 11.8704 6.48919C12.2596 6.25434 12.6483 6.06665 13.0061 5.98561Z" fill="white"/>
<path d="M6.72701 12C6.96434 12 7.15674 12.1924 7.15674 12.4297V16.727C7.15674 16.9643 6.96434 17.1567 6.72701 17.1567H2.42973C2.1924 17.1567 2 16.9643 2 16.727V12.4297C2 12.1924 2.1924 12 2.42973 12H6.72701ZM2.85946 16.2973H6.29728V12.8595H2.85946V16.2973Z" fill="#FFD43B"/>
<circle cx="4.65592" cy="14.5094" r="0.372172" fill="#FFD43B"/>
<path d="M15.727 4C15.9643 4 16.1567 4.1924 16.1567 4.42973V8.72701C16.1567 8.96434 15.9643 9.15674 15.727 9.15674H11.4297C11.1924 9.15674 11 8.96434 11 8.72701V4.42973C11 4.1924 11.1924 4 11.4297 4H15.727ZM11.8595 8.29728H15.2973V4.85946H11.8595V8.29728Z" fill="#FFD43B"/>
<circle cx="13.6559" cy="6.50938" r="0.372172" fill="#FFD43B"/>
<path d="M21.927 13.6C22.1644 13.6 22.3568 13.7924 22.3568 14.0297V18.327C22.3568 18.5644 22.1644 18.7567 21.927 18.7567H17.6297C17.3924 18.7567 17.2 18.5644 17.2 18.327V14.0297C17.2 13.7924 17.3924 13.6 17.6297 13.6H21.927ZM18.0595 17.8973H21.4973V14.4595H18.0595V17.8973Z" fill="#FFD43B"/>
<circle cx="19.8559" cy="16.1094" r="0.372172" fill="#FFD43B"/>
</svg>
