<svg width="24" height="24" viewBox="0 0 24 24" fill="none" xmlns="http://www.w3.org/2000/svg">
<path d="M7.82496 13L12.725 17.9C12.925 18.1 13.021 18.3333 13.013 18.6C13.005 18.8667 12.9006 19.1 12.7 19.3C12.5 19.4833 12.2666 19.5793 12 19.588C11.7333 19.5967 11.5 19.5007 11.3 19.3L4.69996 12.7C4.59996 12.6 4.52896 12.4917 4.48696 12.375C4.44496 12.2583 4.42463 12.1333 4.42596 12C4.4273 11.8667 4.4483 11.7417 4.48896 11.625C4.52963 11.5083 4.6003 11.4 4.70096 11.3L11.301 4.7C11.4843 4.51667 11.7136 4.425 11.989 4.425C12.2643 4.425 12.5016 4.51667 12.701 4.7C12.901 4.9 13.001 5.13767 13.001 5.413C13.001 5.68834 12.901 5.92567 12.701 6.125L7.82496 11H19C19.2833 11 19.521 11.096 19.713 11.288C19.905 11.48 20.0006 11.7173 20 12C19.9993 12.2827 19.9033 12.5203 19.712 12.713C19.5206 12.9057 19.2833 13.0013 19 13H7.82496Z" fill="#E0E0E0"/>
</svg>
