<svg width="24" height="24" viewBox="0 0 24 24" fill="none" xmlns="http://www.w3.org/2000/svg">
<path d="M16.8 21.3H15C14.502 21.3 14.1 20.898 14.1 20.4C14.1 19.902 14.502 19.5 15 19.5H16.8C18.288 19.5 19.5 18.288 19.5 16.8V15C19.5 14.502 19.902 14.1 20.4 14.1C20.8979 14.1 21.2999 14.502 21.2999 15V16.8C21.2999 19.284 19.284 21.3 16.8 21.3ZM8.99995 21.3H7.19995C4.71595 21.3 2.69995 19.284 2.69995 16.8V15C2.69995 14.502 3.10195 14.1 3.59995 14.1C4.09795 14.1 4.49995 14.502 4.49995 15V16.8C4.49995 18.288 5.71195 19.5 7.19995 19.5H8.99995C9.49795 19.5 9.89995 19.902 9.89995 20.4C9.89995 20.898 9.49795 21.3 8.99995 21.3ZM20.4 9.90001C19.902 9.90001 19.5 9.49801 19.5 9.00001V7.20001C19.5 5.71201 18.288 4.50001 16.8 4.50001H15C14.502 4.50001 14.1 4.09801 14.1 3.60001C14.1 3.10201 14.502 2.70001 15 2.70001H16.8C19.284 2.70001 21.2999 4.71601 21.2999 7.20001V9.00001C21.2999 9.49801 20.8979 9.90001 20.4 9.90001ZM3.59995 9.90001C3.10195 9.90001 2.69995 9.49801 2.69995 9.00001V7.20001C2.69995 4.71601 4.71595 2.70001 7.19995 2.70001H8.99995C9.49795 2.70001 9.89995 3.10201 9.89995 3.60001C9.89995 4.09801 9.49795 4.50001 8.99995 4.50001H7.19995C5.71195 4.50001 4.49995 5.71201 4.49995 7.20001V9.00001C4.49995 9.49801 4.09795 9.90001 3.59995 9.90001Z" fill="white"/>
<path d="M14.5 12C14.5 10.6193 13.3807 9.5 12 9.5C10.6193 9.5 9.5 10.6193 9.5 12C9.5 13.3807 10.6193 14.5 12 14.5V16C9.79086 16 8 14.2091 8 12C8 9.79086 9.79086 8 12 8C14.2091 8 16 9.79086 16 12C16 14.2091 14.2091 16 12 16V14.5C13.3807 14.5 14.5 13.3807 14.5 12Z" fill="#007BFF"/>
<path d="M11 8.5V6C11 5.44772 11.4477 5 12 5C12.5523 5 13 5.44772 13 6V8.5C13 9.05228 12.5523 9.5 12 9.5C11.4477 9.5 11 9.05228 11 8.5Z" fill="#007BFF"/>
<path d="M11 18.5V16C11 15.4477 11.4477 15 12 15C12.5523 15 13 15.4477 13 16V18.5C13 19.0523 12.5523 19.5 12 19.5C11.4477 19.5 11 19.0523 11 18.5Z" fill="#007BFF"/>
<path d="M16 11L18.5 11C19.0523 11 19.5 11.4477 19.5 12C19.5 12.5523 19.0523 13 18.5 13L16 13C15.4477 13 15 12.5523 15 12C15 11.4477 15.4477 11 16 11Z" fill="#007BFF"/>
<path d="M6 11L8.5 11C9.05228 11 9.5 11.4477 9.5 12C9.5 12.5523 9.05228 13 8.5 13L6 13C5.44772 13 5 12.5523 5 12C5 11.4477 5.44772 11 6 11Z" fill="#007BFF"/>
</svg>
