<svg width="24" height="24" viewBox="0 0 24 24" fill="none" xmlns="http://www.w3.org/2000/svg">
<path d="M10.6185 16.9315C10.7395 16.9772 10.8667 17 11 17V7C10.8667 7 10.7417 7.025 10.625 7.075C10.5083 7.125 10.4 7.2 10.3 7.3L6.3125 11.3C6.22083 11.391 6.14583 11.4972 6.0875 11.6185C6.02917 11.7398 6 11.867 6 12C6 12.133 6.02917 12.26 6.0875 12.381C6.14583 12.502 6.22083 12.6125 6.3125 12.7125L10.3 16.7125C10.3913 16.8128 10.4975 16.8858 10.6185 16.9315Z" fill="#007BFF"/>
<path d="M15.8206 7.144C15.7006 7.048 15.5521 7 15.375 7H11V8V11.5V12.5V16V17H15.375C15.5521 17.0007 15.7004 16.9528 15.82 16.8565C15.9396 16.7602 15.9996 16.6413 16 16.5C16.0004 16.3587 15.9406 16.24 15.8206 16.144C15.7006 16.048 15.5521 16 15.375 16H14.75V14.5C14.7504 13.992 14.6021 13.515 14.305 13.069C14.0079 12.623 13.5937 12.2667 13.0625 12C13.5942 11.7337 14.0083 11.3775 14.305 10.9315C14.6017 10.4855 14.75 10.0083 14.75 9.5V8H15.375C15.5521 8.00067 15.7004 7.95283 15.82 7.8565C15.9396 7.76017 15.9996 7.64133 16 7.5C16.0004 7.35867 15.9406 7.24 15.8206 7.144Z" fill="#007BFF"/>
</svg>
