<svg width="24" height="24" viewBox="0 0 24 24" fill="none" xmlns="http://www.w3.org/2000/svg">
<path d="M7.19985 3.60001H11.9999C13.9859 3.60001 15.5999 5.21401 15.5999 7.20001V8.5H13.7999V7.20001C13.7999 6.20401 12.9959 5.40001 11.9999 5.40001H7.19985C6.20985 5.40001 5.39985 6.20401 5.39985 7.20001V12C5.39985 12.99 6.20985 13.8 7.19985 13.8H8.49994V15.6H7.19985C5.21985 15.6 3.59985 13.98 3.59985 12V7.20001C3.59985 5.21401 5.21985 3.60001 7.19985 3.60001Z" fill="white"/>
<path d="M11 15.9906C13.625 15.9906 12.125 11 14 11C15.875 11 14.5 15.9906 17 15.9906" stroke="#007BFF" stroke-linecap="round"/>
<path d="M16.1068 7.6618H11.3068C9.32679 7.6618 7.70679 9.2758 7.70679 11.2618V16.0618C7.70679 18.0418 9.32679 19.6618 11.3068 19.6618H16.1068C18.0928 19.6618 19.7068 18.0418 19.7068 16.0618V11.2618C19.7068 9.2758 18.0928 7.6618 16.1068 7.6618ZM17.9068 16.0618C17.9068 17.0518 17.1028 17.8618 16.1068 17.8618H11.3068C10.3168 17.8618 9.50679 17.0518 9.50679 16.0618V11.2618C9.50679 10.2658 10.3168 9.4618 11.3068 9.4618H16.1068C17.1028 9.4618 17.9068 10.2658 17.9068 11.2618V16.0618Z" fill="#007BFF"/>
</svg>
