<svg width="24" height="24" viewBox="0 0 24 24" fill="none" xmlns="http://www.w3.org/2000/svg">
<path d="M18.8041 7.11746C19.6331 7.11746 20.3052 7.7895 20.3052 8.61851C20.3052 9.44751 19.6331 10.1196 18.8041 10.1196H5.06379C4.23478 10.1196 3.56274 9.44751 3.56274 8.61851C3.56274 7.7895 4.23478 7.11746 5.06379 7.11746H18.8041Z" fill="white"/>
<path d="M18.8041 15.6619C19.6331 15.6619 20.3052 16.3339 20.3052 17.1629C20.3052 17.9919 19.6331 18.664 18.8041 18.664H5.06379C4.23478 18.664 3.56274 17.9919 3.56274 17.1629C3.56274 16.3339 4.23478 15.6619 5.06379 15.6619H18.8041Z" fill="white"/>
<path d="M8.50456 8.77816L11.7896 5.29693C12.2405 4.81911 11.9184 4 11.2814 4L4.71856 4C4.0816 4 3.75954 4.81911 4.21042 5.29693L7.49544 8.77816C7.77456 9.07395 8.22544 9.07395 8.50456 8.77816Z" fill="#007BFF"/>
<path d="M15.5046 17.7782L18.7896 14.2969C19.2405 13.8191 18.9184 13 18.2814 13L11.7186 13C11.0816 13 10.7595 13.8191 11.2104 14.2969L14.4954 17.7782C14.7746 18.0739 15.2254 18.0739 15.5046 17.7782Z" fill="#007BFF"/>
</svg>
