<svg width="24" height="24" viewBox="0 0 24 24" fill="none" xmlns="http://www.w3.org/2000/svg">
<path d="M7.2 19.2C7.86274 19.2 8.4 18.6628 8.4 18C8.4 17.3373 7.86274 16.8 7.2 16.8C6.53726 16.8 6 17.3373 6 18C6 18.6628 6.53726 19.2 7.2 19.2Z" fill="#FFD43B"/>
<path d="M17.436 12.318C17.628 11.796 18.366 11.796 18.564 12.318L19.2 14.04C19.26 14.202 19.392 14.334 19.554 14.394L21.276 15.03C21.798 15.222 21.798 15.96 21.276 16.158L19.554 16.794C19.392 16.854 19.26 16.986 19.2 17.148L18.564 18.87C18.372 19.392 17.634 19.392 17.436 18.87L16.8 17.148C16.74 16.986 16.608 16.854 16.446 16.794L14.724 16.158C14.202 15.966 14.202 15.228 14.724 15.03L16.446 14.394C16.608 14.334 16.74 14.202 16.8 14.04L17.436 12.318Z" fill="#FFD43B"/>
<path d="M4.836 9.31801C5.028 8.79601 5.766 8.79601 5.964 9.31801L6.276 10.164C6.336 10.326 6.468 10.458 6.63 10.518L7.476 10.83C7.998 11.022 7.998 11.76 7.476 11.958L6.63 12.27C6.468 12.33 6.336 12.462 6.276 12.624L5.964 13.47C5.772 13.992 5.034 13.992 4.836 13.47L4.524 12.624C4.464 12.462 4.332 12.33 4.17 12.27L3.324 11.958C2.802 11.766 2.802 11.028 3.324 10.83L4.17 10.518C4.332 10.458 4.464 10.326 4.524 10.164L4.836 9.31801Z" fill="#FFD43B"/>
<path d="M18.6 4.79999H5.39995C4.73995 4.79999 4.19995 5.33999 4.19995 5.99999C4.19995 6.65999 4.73995 7.19999 5.39995 7.19999H10.8V19.2C10.8 19.86 11.34 20.4 12 20.4C12.66 20.4 13.2 19.86 13.2 19.2V7.19999H18.6C19.26 7.19999 19.8 6.65999 19.8 5.99999C19.8 5.33999 19.26 4.79999 18.6 4.79999Z" fill="white"/>
</svg>
