<svg width="24" height="24" viewBox="0 0 24 24" fill="none" xmlns="http://www.w3.org/2000/svg">
<path d="M9.5 16.7H14.5V14.75C14.5 14.035 14.2552 13.4229 13.7656 12.9137C13.276 12.4046 12.6875 12.15 12 12.15C11.3125 12.15 10.724 12.4046 10.2344 12.9137C9.74479 13.4229 9.5 14.035 9.5 14.75V16.7ZM12 10.85C12.6875 10.85 13.276 10.5954 13.7656 10.0862C14.2552 9.57708 14.5 8.965 14.5 8.25V6.3H9.5V8.25C9.5 8.965 9.74479 9.57708 10.2344 10.0862C10.724 10.5954 11.3125 10.85 12 10.85ZM7.625 18C7.44792 18 7.29959 17.9376 7.18 17.8128C7.06042 17.688 7.00042 17.5337 7 17.35C6.99959 17.1663 7.05959 17.012 7.18 16.8872C7.30042 16.7624 7.44875 16.7 7.625 16.7H8.25V14.75C8.25 14.0892 8.39854 13.4688 8.69563 12.889C8.99271 12.3092 9.40667 11.8462 9.9375 11.5C9.40625 11.1533 8.99229 10.6903 8.69563 10.1109C8.39896 9.53158 8.25042 8.91126 8.25 8.25V6.3H7.625C7.44792 6.3 7.29959 6.2376 7.18 6.1128C7.06042 5.988 7.00042 5.83373 7 5.65C6.99959 5.46627 7.05959 5.312 7.18 5.1872C7.30042 5.0624 7.44875 5 7.625 5H16.375C16.5521 5 16.7006 5.0624 16.8206 5.1872C16.9406 5.312 17.0004 5.46627 17 5.65C16.9996 5.83373 16.9396 5.98822 16.82 6.11345C16.7004 6.23868 16.5521 6.30087 16.375 6.3H15.75V8.25C15.75 8.91083 15.6017 9.53115 15.305 10.1109C15.0083 10.6907 14.5942 11.1538 14.0625 11.5C14.5937 11.8467 15.0079 12.3099 15.305 12.8897C15.6021 13.4695 15.7504 14.0896 15.75 14.75V16.7H16.375C16.5521 16.7 16.7006 16.7624 16.8206 16.8872C16.9406 17.012 17.0004 17.1663 17 17.35C16.9996 17.5337 16.9396 17.6882 16.82 17.8134C16.7004 17.9387 16.5521 18.0009 16.375 18H7.625Z" fill="white"/>
</svg>
