<svg width="24" height="24" viewBox="0 0 24 24" fill="none" xmlns="http://www.w3.org/2000/svg">
<path fill-rule="evenodd" clip-rule="evenodd" d="M16.0951 7.62305C15.2085 6.73193 13.7672 6.73193 12.8807 7.62305L5.67914 15.3426C4.78802 16.2292 4.52411 19.194 4.52411 19.194C4.52411 19.194 7.85493 18.8585 8.7415 17.9674L16.0951 10.8375C16.9862 9.95088 16.9862 8.50963 16.0951 7.62305ZM15.3403 9.78721L13.7309 11.3921C13.6445 11.4831 13.499 11.4831 13.4126 11.3921L12.767 10.7511C12.6806 10.6601 12.6806 10.5147 12.767 10.4283L14.3765 8.81879C14.4628 8.73241 14.6083 8.73241 14.6993 8.81879L15.3403 9.4644C15.4267 9.55079 15.4267 9.69628 15.3403 9.78721Z" fill="white"/>
<path d="M11.4 5.4C12.0627 5.4 12.6 4.86274 12.6 4.2C12.6 3.53726 12.0627 3 11.4 3C10.7372 3 10.2 3.53726 10.2 4.2C10.2 4.86274 10.7372 5.4 11.4 5.4Z" fill="#FFD43B"/>
<path d="M17.436 14.118C17.628 13.596 18.366 13.596 18.564 14.118L19.2 15.84C19.26 16.002 19.392 16.134 19.554 16.194L21.276 16.83C21.798 17.022 21.798 17.76 21.276 17.958L19.554 18.594C19.392 18.654 19.26 18.786 19.2 18.948L18.564 20.67C18.372 21.192 17.634 21.192 17.436 20.67L16.8 18.948C16.74 18.786 16.608 18.654 16.446 18.594L14.724 17.958C14.202 17.766 14.202 17.028 14.724 16.83L16.446 16.194C16.608 16.134 16.74 16.002 16.8 15.84L17.436 14.118Z" fill="#FFD43B"/>
<path d="M5.43597 4.518C5.62797 3.996 6.36597 3.996 6.56397 4.518L6.87597 5.364C6.93597 5.526 7.06797 5.658 7.22997 5.718L8.07597 6.03C8.59797 6.222 8.59797 6.96 8.07597 7.158L7.22997 7.47C7.06797 7.53 6.93597 7.662 6.87597 7.824L6.56397 8.67C6.37197 9.192 5.63397 9.192 5.43597 8.67L5.12397 7.824C5.06397 7.662 4.93197 7.53 4.76997 7.47L3.92397 7.158C3.40197 6.966 3.40197 6.228 3.92397 6.03L4.76997 5.718C4.93197 5.658 5.06397 5.526 5.12397 5.364L5.43597 4.518Z" fill="#FFD43B"/>
<rect x="4.43188" y="19.7691" width="11.0846" height="0.92372" fill="white"/>
</svg>
