<svg width="27" height="26" viewBox="0 0 27 26" fill="none" xmlns="http://www.w3.org/2000/svg">
<path d="M5.11306 19.5901C4.81471 19.5901 4.5648 19.489 4.36333 19.2868C4.16185 19.0846 4.06076 18.8347 4.06006 18.5371C4.05936 18.2394 4.16045 17.9895 4.36333 17.7873C4.5662 17.5851 4.81612 17.4841 5.11306 17.4841H21.9611C22.2594 17.4841 22.5097 17.5851 22.7119 17.7873C22.914 17.9895 23.0148 18.2394 23.0141 18.5371C23.0134 18.8347 22.9123 19.085 22.7108 19.2878C22.5093 19.4907 22.2594 19.5915 21.9611 19.5901H5.11306ZM5.11306 14.325C4.81471 14.325 4.5648 14.224 4.36333 14.0218C4.16185 13.8196 4.06076 13.5697 4.06006 13.272C4.05936 12.9744 4.16045 12.7245 4.36333 12.5223C4.5662 12.3201 4.81612 12.219 5.11306 12.219H21.9611C22.2594 12.219 22.5097 12.3201 22.7119 12.5223C22.914 12.7245 23.0148 12.9744 23.0141 13.272C23.0134 13.5697 22.9123 13.82 22.7108 14.0228C22.5093 14.2257 22.2594 14.3265 21.9611 14.325H5.11306ZM5.11306 9.06004C4.81471 9.06004 4.5648 8.95895 4.36333 8.75678C4.16185 8.5546 4.06076 8.30469 4.06006 8.00704C4.05936 7.70939 4.16045 7.45948 4.36333 7.2573C4.5662 7.05513 4.81612 6.95404 5.11306 6.95404H21.9611C22.2594 6.95404 22.5097 7.05513 22.7119 7.2573C22.914 7.45948 23.0148 7.70939 23.0141 8.00704C23.0134 8.30469 22.9123 8.55495 22.7108 8.75783C22.5093 8.96071 22.2594 9.06145 21.9611 9.06004H5.11306Z" fill="#BDBDBD"/>
</svg>
