<svg width="24" height="24" viewBox="0 0 24 24" fill="none" xmlns="http://www.w3.org/2000/svg">
<path d="M16.5 8C18.4672 8 20.1382 9.26272 20.75 11.0215C20.6687 11.0078 20.5852 11 20.5 11H16.5C15.6716 11 15 11.6716 15 12.5C15 13.3284 15.6716 14 16.5 14H20.5C20.5853 14 20.6686 13.9912 20.75 13.9775C20.1385 15.7368 18.4675 17 16.5 17C14.0147 17 12 14.9853 12 12.5C12 10.0147 14.0147 8 16.5 8Z" fill="white"/>
<circle cx="16.5" cy="12.5" r="0.5" fill="#FFD700"/>
<path d="M3 22L17 8V3L3 17V22Z" fill="#FFD700"/>
<path d="M17 17L8 7.99999L3 8L12 17L17 17Z" fill="#FFD700"/>
</svg>
